HIERARCHY
ROOT pelvis
{
  OFFSET 0 0 0
  CHANNELS 6 Xposition Yposition Zposition Zrotation Xrotation Yrotation
  JOINT spine_01
  {
    OFFSET 10.8089 -0.851415 0
    CHANNELS 3 Zrotation Xrotation Yrotation
    JOINT spine_02
    {
      OFFSET 18.8753 3.80116 0
      CHANNELS 3 Zrotation Xrotation Yrotation
      JOINT spine_03
      {
        OFFSET 13.4073 0.420477 0
        CHANNELS 3 Zrotation Xrotation Yrotation
        JOINT clavicle_l
        {
          OFFSET 11.8837 -2.73209 -3.78198
          CHANNELS 3 Zrotation Xrotation Yrotation
          JOINT upperarm_l
          {
            OFFSET 15.7849 0 0
            CHANNELS 3 Zrotation Xrotation Yrotation
            JOINT lowerarm_l
            {
              OFFSET 30.3399 0 0
              CHANNELS 3 Zrotation Xrotation Yrotation
              JOINT hand_l
              {
                OFFSET 26.9751 0 0
                CHANNELS 3 Zrotation Xrotation Yrotation
                End Site
                {
                  OFFSET 0 0 0
                }
              }
            }
          }
        }
        JOINT clavicle_r
        {
          OFFSET 11.8838 -2.7321 3.782
          CHANNELS 3 Zrotation Xrotation Yrotation
          JOINT upperarm_r
          {
            OFFSET -15.7848 0 0
            CHANNELS 3 Zrotation Xrotation Yrotation
            JOINT lowerarm_r
            {
              OFFSET -30.34 0 0
              CHANNELS 3 Zrotation Xrotation Yrotation
              JOINT hand_r
              {
                OFFSET -26.9752 2.55532e-005 0
                CHANNELS 3 Zrotation Xrotation Yrotation
                End Site
                {
                  OFFSET 0 0 0
                }
              }
            }
          }
        }
        JOINT neck_01
        {
          OFFSET 16.5588 -0.355317 0
          CHANNELS 3 Zrotation Xrotation Yrotation
          JOINT head
          {
            OFFSET 9.28362 0.364158 0
            CHANNELS 3 Zrotation Xrotation Yrotation
            End Site
            {
              OFFSET 0 0 0
            }
          }
        }
      }
    }
  }
  JOINT thigh_l
  {
    OFFSET -1.44882 -0.531424 -9.00581
    CHANNELS 3 Zrotation Xrotation Yrotation
    JOINT calf_l
    {
      OFFSET -42.572 0 0
      CHANNELS 3 Zrotation Xrotation Yrotation
      JOINT foot_l
      {
        OFFSET -40.1967 0 0
        CHANNELS 3 Zrotation Xrotation Yrotation
        JOINT ball_l
        {
          OFFSET -10.4538 -16.5779 0.0801573
          CHANNELS 3 Zrotation Xrotation Yrotation
          End Site
          {
            OFFSET 0 0 0
          }
        }
      }
    }
  }
  JOINT thigh_r
  {
    OFFSET -1.44865 -0.531428 9.0058
    CHANNELS 3 Zrotation Xrotation Yrotation
    JOINT calf_r
    {
      OFFSET 42.5723 0 0
      CHANNELS 3 Zrotation Xrotation Yrotation
      JOINT foot_r
      {
        OFFSET 40.1968 0 -1.14441e-005
        CHANNELS 3 Zrotation Xrotation Yrotation
        JOINT ball_r
        {
          OFFSET 10.4538 16.5778 -0.0801582
          CHANNELS 3 Zrotation Xrotation Yrotation
          End Site
          {
            OFFSET 0 0 0
          }
        }
      }
    }
  }
}
MOTION
Frames:	19
Frame Time:	0.0333333
0.276678 92.642 -0.366771 -105.739 -73.4214 161.191 -14.1678 -1.1224 0.990899 11.9415 -0.538296 0.200604 0.653132 -0.518128 0.219635 -12.2626 23.2874 99.8036 -35.4468 2.86296 66.2385 -21.6496 -6.53802 0.518184 -3.98182 -59.9044 4.4866 167.392 15.347 102.558 -4.19225 -6.87029 71.7529 -15.6009 -6.49551 0.371639 0.381225 -47.4207 10.2284 -23.464 2.6866 -0.589354 19.0577 14.3588 4.45501 9.17671 16.3673 -4.65752 -22.6694 -3.95752 -1.4594 8.5463 -0.0924869 4.23472 -91.8836 0.00394553 0.00895438 -177.257 19.2705 -3.69169 -27.4913 4.5996 -0.831071 21.3367 2.99375 -0.524437 -91.8836 0.00394077 0.00895108 
0.244458 92.5883 -0.225097 -105.016 -72.7043 161.815 -14.2763 -1.24553 1.08594 11.9841 -0.593492 0.241251 0.69536 -0.571654 0.262007 -12.1795 23.2122 99.6382 -35.6312 2.74785 66.4182 -20.9233 -6.53803 0.501579 -5.72353 -60.1847 3.06553 167.39 15.3611 102.559 -4.34401 -6.71992 71.7198 -15.352 -6.49551 0.371639 -0.272243 -47.4019 10.2624 -23.5419 2.72414 -0.589372 19.0052 14.6169 4.42788 9.03944 16.5281 -4.61665 -22.7998 -3.48056 -1.43186 8.54541 -0.0629106 4.34131 -91.8836 0.00394553 0.00895438 -177.033 19.4166 -4.02197 -27.8847 4.61593 -0.841302 21.5865 2.13391 -0.372933 -91.8836 0.00394077 0.00895108 
0.214215 92.5041 -0.0666844 -104.257 -71.8464 162.533 -14.3936 -1.36215 1.13937 12.0085 -0.6519 0.279633 0.719433 -0.628608 0.302208 -12.0752 23.1453 99.4257 -35.8555 2.92691 66.5889 -21.0123 -6.53803 0.503501 -7.29872 -60.6162 0.982094 167.38 15.3788 102.579 -4.46514 -6.17467 71.5682 -15.9894 -6.4955 0.386712 -0.563281 -47.778 10.3564 -23.5973 2.76285 -0.574023 18.9658 14.8857 4.37767 9.01721 16.6786 -4.67119 -23.1874 -2.80192 -1.42463 8.70533 -0.0340922 4.50916 -91.8836 0.00394553 0.00895438 -176.764 19.5207 -4.33153 -28.4034 4.63628 -0.864869 21.8996 1.19051 -0.19033 -91.8836 0.00394077 0.00895108 
0.191572 92.3956 0.122699 -103.551 -70.9334 163.265 -14.519 -1.50146 1.13721 11.9911 -0.733947 0.321004 0.701642 -0.70904 0.346251 -11.9384 23.0654 99.1482 -36.2559 3.15722 66.6484 -21.9133 -6.53816 0.524073 -7.93401 -61.2362 -1.03401 167.361 15.402 102.621 -4.68773 -5.3712 71.198 -17.5037 -6.50611 0.422216 -0.0679329 -48.5305 10.9944 -23.6039 2.80897 -0.534776 18.9536 15.2084 4.343 9.12562 16.7322 -4.81339 -23.9072 -2.02294 -1.45963 9.27764 -0.0324604 4.75131 -91.8836 0.00394553 0.00895438 -176.527 19.5549 -4.57901 -28.9698 4.65818 -0.896721 22.2602 0.265118 0.0175006 -91.8836 0.00394077 0.00895108 
0.185638 92.2907 0.332822 -102.919 -70.0958 163.953 -14.6529 -1.68829 1.10031 11.9288 -0.852133 0.368801 0.63878 -0.825226 0.398034 -11.7519 22.9343 98.772 -37.1967 2.90304 66.3902 -22.7288 -6.53858 0.542516 -7.51707 -62.1377 -2.09425 167.345 15.4347 102.654 -5.19262 -4.60626 70.4679 -19.6869 -6.52307 0.472929 1.41075 -49.6261 12.5319 -23.5603 2.86894 -0.481151 18.9969 15.6358 4.37372 9.24366 16.6699 -4.90218 -24.6484 -1.71832 -1.54362 9.92285 -0.0871128 4.91252 -91.8836 0.00394553 0.00895438 -176.394 19.5376 -4.73427 -29.4339 4.03482 -0.995499 22.6047 0.0557031 0.0267125 -91.8836 0.00394077 0.00895108 
0.212772 92.2021 0.534185 -102.268 -69.394 164.688 -14.7998 -1.90696 1.03706 11.8547 -0.993219 0.419934 0.564141 -0.964118 0.453911 -11.5045 22.7267 98.2667 -39.0346 1.73319 65.5663 -22.4716 -6.53891 0.53673 -6.99842 -63.3383 -2.0054 167.351 15.4642 102.626 -6.09413 -4.20723 69.1888 -22.3583 -6.54637 0.534035 3.47684 -51.1123 14.6666 -23.508 2.94257 -0.43342 19.1039 16.1764 4.4878 9.41301 16.5744 -4.7613 -25.5052 -2.67324 -1.76718 10.7785 -0.115967 4.70835 -91.8836 0.00394553 0.00895438 -176.332 19.5057 -4.82202 -29.7448 3.31994 -1.08838 22.8922 0.0314958 0.00312652 -91.8836 0.00394077 0.00895108 
0.296326 92.1076 0.71036 -101.5 -68.7727 165.613 -14.9625 -2.10851 0.927994 11.8132 -1.1262 0.469504 0.522129 -1.09529 0.507743 -11.2078 22.4626 97.6519 -41.7925 -0.244641 63.9867 -21.4996 -6.53878 0.514722 -7.77118 -64.7373 -1.89856 167.39 15.4293 102.534 -7.37591 -4.41571 67.127 -25.5545 -6.57798 0.605588 5.164 -53.1608 16.3351 -23.5044 3.02189 -0.403322 19.2345 16.7919 4.63736 10.0735 16.582 -4.34611 -27.1308 -5.02072 -2.22253 12.0855 -0.156295 3.2105 -91.8836 0.00394553 0.00895438 -176.221 19.5259 -4.8528 -30.0244 2.60113 -1.17679 23.1464 0.02281 -0.00444028 -91.8836 0.00394077 0.00895108 
0.451272 92.0002 0.881539 -100.574 -68.1546 166.764 -15.1271 -2.26277 0.787587 11.8206 -1.23027 0.522976 0.52926 -1.19787 0.564233 -10.8949 22.1956 97.0227 -45.1954 -2.47671 61.4292 -21.3569 -6.53754 0.511539 -10.7286 -66.1465 -3.62941 167.439 15.23 102.478 -8.98531 -5.42657 64.0372 -29.308 -6.62004 0.687214 5.33971 -55.8223 16.2623 -23.5765 3.0969 -0.384477 19.3165 17.4817 4.72697 11.2801 16.7475 -3.68413 -29.4513 -7.96109 -2.82741 13.5118 -0.290611 0.323686 -91.8836 0.00394553 0.00895438 -175.992 19.651 -4.87957 -30.3449 1.74751 -1.28134 23.3818 0.0324395 -0.01139 -91.8836 0.00394077 0.00895108 
0.669995 91.9238 1.09413 -99.4857 -67.5185 168.059 -15.2675 -2.38377 0.685915 11.8583 -1.30586 0.598604 0.566931 -1.2715 0.641777 -10.5907 21.9553 96.4898 -49.0622 -4.51188 57.6123 -22.9753 -6.55233 0.548042 -15.9727 -67.448 -8.39719 167.468 14.8175 102.588 -11.0135 -7.41301 59.7675 -33.413 -6.67203 0.773112 3.23329 -58.7339 13.6715 -23.7113 3.16339 -0.36466 19.2882 18.3478 4.68371 13.1632 16.8912 -3.32279 -31.5705 -10.6751 -3.3494 12.3034 -0.264541 -0.0210687 -91.8836 0.00394553 0.00895438 -175.713 19.8686 -4.98551 -30.5362 0.690173 -1.37485 23.5219 0.0554035 -0.0402839 -91.8836 0.00394077 0.00895108 
0.923277 91.9074 1.3854 -98.2626 -66.85 169.442 -15.38 -2.49316 0.659897 11.8975 -1.35883 0.712908 0.606305 -1.32124 0.757247 -10.2813 21.7039 96.0756 -53.4637 -6.37781 52.4095 -25.6681 -6.57921 0.607888 -23.3681 -68.7098 -16.1715 167.476 14.2889 102.876 -13.7779 -10.4403 54.3774 -37.4947 -6.72961 0.854558 -1.08722 -61.2435 8.72312 -23.8809 3.22396 -0.340587 19.1252 19.5249 4.53332 15.5034 16.9237 -3.14852 -33.4264 -11.752 -3.60245 11.7363 -0.206515 0.0719866 -91.8836 0.00394553 0.00895438 -175.486 20.1033 -5.15682 -30.4405 -0.524867 -1.42106 23.5026 0.0852045 -0.0934808 -91.8836 0.00394077 0.00895108 
1.18012 91.9717 1.77658 -97.0192 -66.0763 170.772 -15.4945 -2.60315 0.778523 11.9214 -1.38697 0.866148 0.630335 -1.34476 0.910847 -9.92111 21.3556 95.6852 -58.3638 -8.33664 45.959 -28.1793 -6.60649 0.662025 -32.943 -69.8844 -26.2755 167.505 13.8436 103.191 -17.6605 -14.376 48.0978 -41.2011 -6.78681 0.924837 -6.74226 -62.8857 2.38026 -24.072 3.28316 -0.31516 18.8414 21.0639 4.40134 18.0094 16.8331 -3.15935 -34.5017 -11.1062 -3.55004 11.2687 -0.159626 0.340682 -91.8836 0.00394553 0.00895438 -175.397 20.2645 -5.39379 -29.9709 -1.77358 -1.39368 23.2826 0.113503 -0.161328 -91.8836 0.00394077 0.00895108 
1.41828 92.0912 2.28771 -95.9225 -65.1498 171.905 -15.6408 -2.70619 1.04377 11.9244 -1.38502 1.04259 0.633312 -1.33712 1.08659 -9.47097 20.8315 95.1869 -63.267 -10.4286 38.5744 -30.0438 -6.62537 0.696406 -43.9532 -70.5373 -37.445 167.615 13.5903 103.32 -22.7837 -18.9361 41.1427 -44.2986 -6.83707 0.979628 -12.8511 -63.5617 -4.38759 -24.2927 3.3393 -0.282673 18.4727 22.878 4.40823 20.4579 16.6729 -3.33818 -34.7769 -9.75682 -3.30567 10.6009 -0.156513 0.396211 -91.8836 0.00394553 0.00895438 -175.491 20.3513 -5.70949 -29.1983 -2.97636 -1.29337 22.9153 0.147198 -0.174086 -91.8836 0.00394077 0.00895108 
1.62118 92.2269 2.94243 -94.9975 -64.111 172.84 -15.8 -2.78562 1.42948 11.9225 -1.34826 1.22171 0.631309 -1.29438 1.2639 -8.92916 20.092 94.5063 -67.4534 -12.4765 30.6098 -31.4827 -6.64724 0.733577 -54.0602 -70.2353 -47.4351 167.855 13.4233 103.129 -28.9531 -23.8495 33.5396 -46.585 -6.87754 1.01979 -18.9625 -63.2648 -11.0207 -24.5641 3.38059 -0.232324 18.0504 24.7561 4.55899 22.7936 16.4749 -3.66684 -34.5803 -8.96456 -3.0389 9.84972 -0.192945 0.0776819 -91.8836 0.00394553 0.00895438 -175.753 20.4373 -6.11151 -28.2367 -4.13081 -1.13539 22.4993 0.192644 -0.101362 -91.8836 0.00394077 0.00895108 
1.77343 92.3465 3.7573 -94.0966 -63.0321 173.78 -15.9162 -2.8156 1.89323 11.9339 -1.2689 1.39299 0.642604 -1.20922 1.43212 -8.32992 19.1341 93.6498 -70.6733 -14.4793 22.4335 -32.4464 -6.65983 0.753849 -61.0867 -69.0399 -54.3725 168.227 13.1761 102.626 -35.7596 -28.7092 25.2001 -48.0867 -6.91116 1.05087 -24.487 -61.9609 -16.8839 -24.8998 3.39371 -0.168869 17.5788 26.4798 4.76003 25.1322 16.242 -4.23425 -34.1678 -9.07802 -2.81105 9.10701 -0.217569 -0.240292 -91.8836 0.00394553 0.00895438 -176.152 20.5749 -6.5248 -27.1297 -5.28774 -0.931296 22.0954 0.251851 0.0440242 -91.8836 0.00394077 0.00895108 
1.86326 92.4184 4.73514 -93.0688 -61.9554 174.924 -15.9531 -2.78878 2.40068 11.9893 -1.14668 1.56721 0.698153 -1.08128 1.60212 -7.72792 17.9963 92.6809 -73.2445 -16.5564 14.2828 -32.5982 -6.66787 0.766506 -65.0099 -67.362 -58.3278 168.672 12.9126 101.921 -43.1448 -33.0755 16.0588 -48.8022 -6.91453 1.0538 -28.5632 -59.8194 -21.168 -25.2942 3.38262 -0.116039 17.045 27.9945 4.93347 27.6184 15.9795 -5.16296 -33.6551 -9.4346 -2.59223 8.53967 -0.189754 -0.0300144 -91.8836 0.00394553 0.00895438 -176.501 20.7335 -6.94783 -26.1873 -6.56901 -0.739883 21.8644 0.396627 0.748856 -91.8836 0.00394077 0.00895108 
1.88457 92.4309 5.8787 -91.8791 -60.9491 176.316 -15.9272 -2.74785 2.91927 12.0982 -1.01009 1.76887 0.807255 -0.938327 1.79915 -7.18236 16.7837 91.6905 -75.491 -18.6958 6.39336 -32.0378 -6.65457 0.745459 -67.1969 -65.5963 -60.5537 169.126 12.9414 101.096 -51.2504 -36.5752 6.29872 -48.7579 -6.91611 1.05523 -30.7939 -57.281 -23.5112 -25.7181 3.37399 -0.0860632 16.4751 29.4172 5.06115 30.1983 15.6986 -6.4263 -32.9377 -9.31573 -2.33213 8.16803 -0.126758 0.672595 -91.8836 0.00394553 0.00895438 -176.968 20.908 -7.21333 -25.0935 -7.80448 -0.513098 21.6976 0.509253 1.32287 -91.8836 0.00394077 0.00895108 
1.84606 92.3752 7.19745 -90.5744 -60.1323 177.862 -15.8921 -2.77283 3.44355 12.2309 -0.907995 2.00356 0.940035 -0.828939 2.03028 -6.7342 15.6627 90.7605 -77.5676 -20.8303 -1.07009 -31.3377 -6.64735 0.730225 -68.8996 -63.9685 -62.127 169.624 13.4095 100.03 -59.8778 -39.1922 -3.5618 -48.0279 -6.90348 1.0439 -31.5868 -54.7716 -24.2384 -26.1342 3.39701 -0.0538757 15.9862 30.8207 5.12373 32.7344 15.4045 -7.82068 -31.9522 -8.49778 -2.02699 7.85006 -0.0628241 1.50378 -91.8836 0.00394553 0.00895438 -177.598 21.1338 -7.34093 -23.7994 -8.83036 -0.253479 21.5866 0.578054 1.65682 -91.8836 0.00394077 0.00895108 
1.76884 92.2399 8.69617 -89.1867 -59.5735 179.5 -15.9003 -2.91036 3.99003 12.3476 -0.869415 2.23677 1.05617 -0.782809 2.26185 -6.38144 14.7793 89.9108 -79.4224 -22.9872 -7.82024 -31.1907 -6.64734 0.727155 -70.8336 -62.4799 -63.5611 170.319 13.9514 98.3895 -68.0219 -41.2677 -12.8249 -46.9124 -6.88338 1.02534 -31.806 -52.482 -24.102 -26.5087 3.45806 0.017086 15.736 32.0816 5.08349 35.1976 15.0861 -9.17339 -30.8729 -7.12769 -1.72389 7.49082 -0.0130423 2.32023 -91.8836 0.00394553 0.00895438 -178.217 21.4303 -7.48951 -22.6556 -9.66597 -0.0325825 21.68 0.716271 2.39379 -91.8836 0.00394077 0.00895108 
1.66194 92.0147 10.3643 -87.6724 -59.2101 -178.669 -15.974 -3.13186 4.56008 12.4418 -0.879649 2.42906 1.14913 -0.786651 2.45388 -6.07557 14.155 89.0699 -81.142 -25.2461 -13.6254 -31.6314 -6.64898 0.73643 -73.4025 -60.8759 -65.0537 171.301 13.9718 95.9564 -74.524 -43.1747 -21.074 -45.7882 -6.86356 1.00629 -32.342 -50.4427 -23.9987 -26.8151 3.54049 0.114818 15.7879 33.0284 4.93878 37.7102 14.7277 -10.5104 -30.0538 -5.44747 -1.49333 7.13403 0.0182711 3.10733 -91.8836 0.00394553 0.00895438 -178.853 21.7565 -7.57542 -21.6288 -10.3174 0.138315 21.9462 0.924424 3.50196 -91.8836 0.00394077 0.00895108 
